<svg width="24" height="24" viewBox="0 0 24 24" fill="none" xmlns="http://www.w3.org/2000/svg">
<g clip-path="url(#clip0_1_138)">
<path d="M24.448 20.1739L19.198 9.67393C19.1357 9.54937 19.04 9.44462 18.9215 9.3714C18.803 9.29819 18.6665 9.25942 18.5272 9.25942C18.388 9.25942 18.2515 9.29819 18.133 9.3714C18.0145 9.44462 17.9188 9.54937 17.8565 9.67393L15.8211 13.7455C14.2258 13.6558 12.6908 13.1047 11.4027 12.1592C12.914 10.5453 13.8298 8.46419 13.9986 6.25955H16.2777C16.4766 6.25955 16.6674 6.18053 16.808 6.03988C16.9487 5.89923 17.0277 5.70846 17.0277 5.50955C17.0277 5.31064 16.9487 5.11987 16.808 4.97922C16.6674 4.83857 16.4766 4.75955 16.2777 4.75955H11.0277V3.25955C11.0277 3.06064 10.9487 2.86987 10.808 2.72922C10.6674 2.58857 10.4766 2.50955 10.2777 2.50955C10.0788 2.50955 9.88803 2.58857 9.74738 2.72922C9.60673 2.86987 9.52771 3.06064 9.52771 3.25955V4.75955H4.27771C4.0788 4.75955 3.88803 4.83857 3.74738 4.97922C3.60673 5.11987 3.52771 5.31064 3.52771 5.50955C3.52771 5.70846 3.60673 5.89923 3.74738 6.03988C3.88803 6.18053 4.0788 6.25955 4.27771 6.25955H12.493C12.326 8.09766 11.5457 9.82622 10.2777 11.1674C9.48755 10.3336 8.88077 9.34361 8.49646 8.26111C8.46486 8.16667 8.41476 8.07946 8.3491 8.00458C8.28343 7.9297 8.20351 7.86865 8.114 7.82499C8.02449 7.78133 7.92717 7.75594 7.82774 7.75029C7.72831 7.74465 7.62875 7.75886 7.53486 7.7921C7.44098 7.82535 7.35466 7.87696 7.28094 7.94392C7.20722 8.01088 7.14758 8.09186 7.10549 8.18212C7.0634 8.27238 7.0397 8.37012 7.03579 8.46964C7.03188 8.56915 7.04783 8.66845 7.08271 8.76174C7.53015 10.0272 8.23497 11.1863 9.15271 12.1658C7.73968 13.2042 6.03124 13.7627 4.27771 13.7596C4.0788 13.7596 3.88803 13.8386 3.74738 13.9792C3.60673 14.1199 3.52771 14.3106 3.52771 14.5096C3.52771 14.7085 3.60673 14.8992 3.74738 15.0399C3.88803 15.1805 4.0788 15.2596 4.27771 15.2596C6.45326 15.262 8.56646 14.5329 10.2777 13.1896C11.6742 14.2807 13.3412 14.9713 15.1002 15.1874L12.6065 20.1739C12.5624 20.262 12.5361 20.3579 12.5291 20.4562C12.5221 20.5544 12.5345 20.6531 12.5656 20.7465C12.6285 20.9353 12.7637 21.0913 12.9416 21.1803C13.1195 21.2693 13.3255 21.284 13.5142 21.2212C13.703 21.1583 13.859 21.0231 13.948 20.8452L15.2408 18.2596H21.8136L23.1065 20.8452C23.1688 20.9698 23.2646 21.0746 23.3832 21.1477C23.5018 21.2209 23.6384 21.2597 23.7777 21.2596C23.9055 21.2595 24.0312 21.2267 24.1428 21.1644C24.2545 21.1021 24.3483 21.0123 24.4155 20.9036C24.4826 20.7948 24.5209 20.6707 24.5266 20.543C24.5323 20.4153 24.5052 20.2882 24.448 20.1739ZM15.9908 16.7596L18.5277 11.6867L21.0636 16.7596H15.9908Z" fill="url(#paint0_linear_1_138)"/>
</g>
<defs>
<linearGradient id="paint0_linear_1_138" x1="14.0275" y1="2.50955" x2="14.0275" y2="21.2596" gradientUnits="userSpaceOnUse">
<stop stop-color="#B629F8"/>
<stop offset="1" stop-color="#800ADD"/>
</linearGradient>
<clipPath id="clip0_1_138">
<rect width="24" height="24" fill="white"/>
</clipPath>
</defs>
</svg>
