<svg width="145" height="35" viewBox="0 0 145 35" fill="none" xmlns="http://www.w3.org/2000/svg">
<path d="M29.816 0.0159998C29.688 1.648 29.592 3.216 29.528 4.72C29.496 6.224 29.48 7.376 29.48 8.176C29.48 8.88 29.496 9.552 29.528 10.192C29.56 10.832 29.592 11.376 29.624 11.824H28.52C28.008 9.136 27.352 7.008 26.552 5.44C25.784 3.872 24.856 2.768 23.768 2.128C22.68 1.456 21.4 1.12 19.928 1.12H18.824V28.528C18.824 29.808 18.952 30.768 19.208 31.408C19.496 32.048 20.008 32.48 20.744 32.704C21.48 32.896 22.552 33.008 23.96 33.04V34C22.968 33.968 21.64 33.936 19.976 33.904C18.344 33.872 16.632 33.856 14.84 33.856C13.08 33.856 11.416 33.872 9.848 33.904C8.28 33.936 7.016 33.968 6.056 34V33.04C7.496 33.008 8.584 32.896 9.32 32.704C10.056 32.48 10.552 32.048 10.808 31.408C11.064 30.768 11.192 29.808 11.192 28.528V1.12H10.136C8.664 1.12 7.384 1.456 6.296 2.128C5.208 2.768 4.28 3.872 3.512 5.44C2.744 6.976 2.072 9.104 1.496 11.824H0.392C0.456 11.376 0.488 10.832 0.488 10.192C0.52 9.552 0.536 8.88 0.536 8.176C0.536 7.376 0.504 6.224 0.44 4.72C0.408 3.216 0.328 1.648 0.2 0.0159998C1.672 0.0479994 3.272 0.079999 5 0.111999C6.76 0.143998 8.52 0.159998 10.28 0.159998C12.04 0.159998 13.624 0.159998 15.032 0.159998C16.472 0.159998 18.056 0.159998 19.784 0.159998C21.544 0.159998 23.304 0.143998 25.064 0.111999C26.824 0.079999 28.408 0.0479994 29.816 0.0159998ZM42.6298 8.512C44.9658 8.512 47.0138 8.944 48.7738 9.808C50.5338 10.672 51.9098 12.064 52.9018 13.984C53.8938 15.904 54.3898 18.448 54.3898 21.616C54.3898 24.784 53.8938 27.328 52.9018 29.248C51.9098 31.136 50.5338 32.512 48.7738 33.376C47.0138 34.24 44.9658 34.672 42.6298 34.672C40.3578 34.672 38.3258 34.24 36.5338 33.376C34.7738 32.512 33.3818 31.136 32.3578 29.248C31.3658 27.328 30.8698 24.784 30.8698 21.616C30.8698 18.448 31.3658 15.904 32.3578 13.984C33.3818 12.064 34.7738 10.672 36.5338 9.808C38.3258 8.944 40.3578 8.512 42.6298 8.512ZM42.6298 9.472C41.3498 9.472 40.2778 10.432 39.4138 12.352C38.5498 14.24 38.1178 17.328 38.1178 21.616C38.1178 25.904 38.5498 28.992 39.4138 30.88C40.2778 32.768 41.3498 33.712 42.6298 33.712C43.9418 33.712 45.0138 32.768 45.8458 30.88C46.7098 28.992 47.1418 25.904 47.1418 21.616C47.1418 17.328 46.7098 14.24 45.8458 12.352C45.0138 10.432 43.9418 9.472 42.6298 9.472ZM73.8984 8.512C74.9224 8.512 75.7544 8.736 76.3944 9.184C77.0344 9.6 77.4984 10.144 77.7864 10.816C78.1064 11.488 78.2664 12.192 78.2664 12.928C78.2664 14.112 77.9144 15.088 77.2104 15.856C76.5384 16.592 75.6424 16.96 74.5224 16.96C73.4024 16.96 72.5224 16.688 71.8824 16.144C71.2744 15.568 70.9704 14.816 70.9704 13.888C70.9704 12.992 71.1624 12.256 71.5464 11.68C71.9624 11.072 72.4744 10.56 73.0824 10.144C72.6344 10.016 72.1864 10.032 71.7384 10.192C71.1304 10.288 70.5544 10.544 70.0104 10.96C69.4664 11.344 69.0024 11.84 68.6184 12.448C68.2344 13.024 67.9304 13.664 67.7064 14.368C67.4824 15.04 67.3704 15.696 67.3704 16.336V29.056C67.3704 30.592 67.7384 31.632 68.4744 32.176C69.2424 32.72 70.3784 32.992 71.8824 32.992V34C71.1464 33.968 70.0744 33.936 68.6664 33.904C67.2584 33.84 65.7864 33.808 64.2504 33.808C62.9704 33.808 61.6744 33.84 60.3624 33.904C59.0504 33.936 58.0584 33.968 57.3864 34V32.992C58.5064 32.992 59.2904 32.752 59.7384 32.272C60.2184 31.792 60.4584 30.88 60.4584 29.536V14.416C60.4584 12.976 60.2344 11.92 59.7864 11.248C59.3704 10.544 58.5704 10.192 57.3864 10.192V9.184C58.4104 9.28 59.4024 9.328 60.3624 9.328C61.7064 9.328 62.9544 9.28 64.1064 9.184C65.2904 9.056 66.3784 8.88 67.3704 8.656V13.12C67.7544 12.256 68.2664 11.472 68.9064 10.768C69.5464 10.064 70.2824 9.52 71.1144 9.136C71.9464 8.72 72.8744 8.512 73.8984 8.512ZM96.3046 8.512C97.3286 8.512 98.1606 8.736 98.8006 9.184C99.4406 9.6 99.9046 10.144 100.193 10.816C100.513 11.488 100.673 12.192 100.673 12.928C100.673 14.112 100.321 15.088 99.6166 15.856C98.9446 16.592 98.0486 16.96 96.9286 16.96C95.8086 16.96 94.9286 16.688 94.2886 16.144C93.6806 15.568 93.3766 14.816 93.3766 13.888C93.3766 12.992 93.5686 12.256 93.9526 11.68C94.3686 11.072 94.8806 10.56 95.4886 10.144C95.0406 10.016 94.5926 10.032 94.1446 10.192C93.5366 10.288 92.9606 10.544 92.4166 10.96C91.8726 11.344 91.4086 11.84 91.0246 12.448C90.6406 13.024 90.3366 13.664 90.1126 14.368C89.8886 15.04 89.7766 15.696 89.7766 16.336V29.056C89.7766 30.592 90.1446 31.632 90.8806 32.176C91.6486 32.72 92.7846 32.992 94.2886 32.992V34C93.5526 33.968 92.4806 33.936 91.0726 33.904C89.6646 33.84 88.1926 33.808 86.6566 33.808C85.3766 33.808 84.0806 33.84 82.7686 33.904C81.4566 33.936 80.4646 33.968 79.7926 34V32.992C80.9126 32.992 81.6966 32.752 82.1446 32.272C82.6246 31.792 82.8646 30.88 82.8646 29.536V14.416C82.8646 12.976 82.6406 11.92 82.1926 11.248C81.7766 10.544 80.9766 10.192 79.7926 10.192V9.184C80.8166 9.28 81.8086 9.328 82.7686 9.328C84.1126 9.328 85.3606 9.28 86.5126 9.184C87.6966 9.056 88.7846 8.88 89.7766 8.656V13.12C90.1606 12.256 90.6726 11.472 91.3126 10.768C91.9526 10.064 92.6886 9.52 93.5206 9.136C94.3526 8.72 95.2806 8.512 96.3046 8.512ZM113.927 8.512C116.743 8.512 118.951 9.344 120.551 11.008C122.151 12.672 122.951 15.392 122.951 19.168H107.159L107.063 18.256H116.903C116.935 16.688 116.839 15.248 116.615 13.936C116.391 12.592 116.039 11.52 115.559 10.72C115.079 9.92 114.439 9.52 113.639 9.52C112.519 9.52 111.559 10.224 110.759 11.632C109.991 13.04 109.527 15.376 109.367 18.64L109.511 18.928C109.479 19.312 109.447 19.712 109.415 20.128C109.415 20.544 109.415 20.976 109.415 21.424C109.415 23.632 109.719 25.424 110.327 26.8C110.967 28.176 111.767 29.184 112.727 29.824C113.687 30.432 114.663 30.736 115.655 30.736C116.327 30.736 117.015 30.64 117.719 30.448C118.455 30.224 119.191 29.84 119.927 29.296C120.663 28.72 121.351 27.92 121.991 26.896L122.855 27.184C122.471 28.4 121.863 29.584 121.031 30.736C120.199 31.888 119.143 32.832 117.863 33.568C116.583 34.304 115.047 34.672 113.255 34.672C111.079 34.672 109.159 34.208 107.495 33.28C105.831 32.352 104.519 30.944 103.559 29.056C102.631 27.168 102.167 24.768 102.167 21.856C102.167 18.88 102.663 16.4 103.655 14.416C104.679 12.432 106.071 10.96 107.831 10C109.623 9.008 111.655 8.512 113.927 8.512ZM135.234 8.512C136.578 8.512 137.746 8.688 138.738 9.04C139.762 9.36 140.498 9.68 140.946 10C142.034 10.736 142.706 10.256 142.962 8.56H143.97C143.906 9.456 143.858 10.56 143.826 11.872C143.794 13.152 143.778 14.864 143.778 17.008H142.77C142.61 15.824 142.306 14.656 141.858 13.504C141.41 12.352 140.754 11.408 139.89 10.672C139.058 9.936 137.97 9.568 136.626 9.568C135.698 9.568 134.914 9.84 134.274 10.384C133.634 10.896 133.314 11.648 133.314 12.64C133.314 13.6 133.602 14.448 134.178 15.184C134.754 15.888 135.49 16.576 136.386 17.248C137.314 17.888 138.274 18.576 139.266 19.312C140.322 20.112 141.282 20.912 142.146 21.712C143.01 22.48 143.698 23.328 144.21 24.256C144.722 25.184 144.978 26.288 144.978 27.568C144.978 29.008 144.562 30.272 143.73 31.36C142.898 32.416 141.794 33.232 140.418 33.808C139.074 34.384 137.57 34.672 135.906 34.672C134.946 34.672 134.082 34.576 133.314 34.384C132.578 34.192 131.938 33.952 131.394 33.664C130.978 33.472 130.578 33.296 130.194 33.136C129.842 32.944 129.506 32.784 129.186 32.656C128.866 32.56 128.578 32.672 128.322 32.992C128.098 33.312 127.922 33.76 127.794 34.336H126.786C126.85 33.312 126.898 32.064 126.93 30.592C126.962 29.12 126.978 27.168 126.978 24.736H127.986C128.178 26.464 128.53 28 129.042 29.344C129.554 30.656 130.242 31.696 131.106 32.464C132.002 33.2 133.122 33.568 134.466 33.568C135.01 33.568 135.538 33.456 136.05 33.232C136.562 33.008 136.978 32.64 137.298 32.128C137.65 31.616 137.826 30.96 137.826 30.16C137.826 28.752 137.362 27.584 136.434 26.656C135.538 25.728 134.386 24.72 132.978 23.632C131.954 22.8 130.978 21.984 130.05 21.184C129.154 20.352 128.418 19.456 127.842 18.496C127.266 17.504 126.978 16.384 126.978 15.136C126.978 13.696 127.362 12.48 128.13 11.488C128.898 10.496 129.906 9.76 131.154 9.28C132.434 8.768 133.794 8.512 135.234 8.512Z" fill="#F5F5F5"/>
</svg>
